<svg width="30" height="30" viewBox="0 0 30 30" fill="none" xmlns="http://www.w3.org/2000/svg"><circle cx="15" cy="15" r="15" fill="#F5F2F2"/><path d="M22.666 11.06a2.01 2.01 0 00-1.415-1.424C20.004 9.3 15 9.3 15 9.3s-5.004 0-6.25.336a2.01 2.01 0 00-1.415 1.424C7 12.316 7 14.936 7 14.936s0 2.62.335 3.877a2.01 2.01 0 001.414 1.423c1.247.337 6.251.337 6.251.337s5.004 0 6.25-.337a2.01 2.01 0 001.416-1.424C23 17.556 23 14.937 23 14.937s0-2.62-.334-3.876zm-9.302 6.255v-4.758l4.181 2.38-4.181 2.378z" fill="#E83434"/></svg>