<svg width="30" height="30" viewBox="0 0 30 30" fill="none" xmlns="http://www.w3.org/2000/svg"><circle cx="15" cy="15" r="15" fill="#F5F2F2"/><path d="M15 7.622c2.403 0 2.687.009 3.636.052.878.04 1.354.187 1.672.31.42.163.72.358 1.035.673.315.315.51.615.672 1.035.124.317.27.793.31 1.67.044.95.053 1.235.053 3.638 0 2.403-.01 2.687-.053 3.636-.04.878-.186 1.354-.31 1.672-.163.42-.358.72-.672 1.035a2.78 2.78 0 01-1.035.672c-.318.124-.794.27-1.672.31-.948.044-1.233.053-3.636.053s-2.688-.01-3.637-.053c-.877-.04-1.354-.186-1.671-.31a2.791 2.791 0 01-1.035-.672 2.783 2.783 0 01-.673-1.035c-.123-.318-.27-.794-.31-1.672-.043-.948-.052-1.233-.052-3.636s.009-2.688.052-3.637c.04-.877.187-1.354.31-1.671.163-.42.358-.72.673-1.035.315-.315.615-.51 1.035-.673.317-.123.793-.27 1.67-.31.95-.043 1.235-.052 3.638-.052zM15 6c-2.445 0-2.751.01-3.711.054-.958.044-1.612.196-2.185.419A4.408 4.408 0 007.51 7.51a4.4 4.4 0 00-1.037 1.593c-.223.573-.375 1.227-.419 2.185-.044.96-.054 1.266-.054 3.71 0 2.445.01 2.751.054 3.711.044.958.196 1.612.419 2.185.23.592.537 1.094 1.038 1.594.5.5 1.002.808 1.594 1.038.572.223 1.227.375 2.184.418.96.044 1.267.055 3.711.055s2.75-.01 3.71-.055c.958-.043 1.613-.195 2.185-.418a4.407 4.407 0 001.594-1.038c.5-.5.808-1.002 1.038-1.594.223-.572.375-1.227.419-2.185.044-.96.054-1.266.054-3.71 0-2.445-.01-2.751-.054-3.711-.044-.958-.196-1.612-.419-2.185A4.408 4.408 0 0022.49 7.51a4.41 4.41 0 00-1.594-1.038c-.573-.222-1.227-.374-2.185-.418C17.75 6.01 17.444 6 15 6z" fill="#E83434"/><path d="M15 10.378a4.621 4.621 0 100 9.242 4.621 4.621 0 000-9.242zm0 7.621a3 3 0 110-6 3 3 0 010 6zm4.804-6.724a1.08 1.08 0 100-2.16 1.08 1.08 0 000 2.16z" fill="#E83434"/></svg>